<svg xmlns="http://www.w3.org/2000/svg" xmlns:xlink="http://www.w3.org/1999/xlink" version="1.1" x="0px" y="0px" viewBox="0 0 100 125" enable-background="new 0 0 100 100" xml:space="preserve"><g><path d="M74.009,51.189c-2.326,0-4.567,0.353-6.683,0.993c1.145-1.287,2.197-2.666,3.111-4.149   c2.887-4.685,4.414-10.068,4.414-15.567c0-16.37-13.316-29.685-29.685-29.685S15.482,16.097,15.482,32.466   c0,5.499,1.526,10.883,4.411,15.567c1.017,1.65,2.187,3.19,3.487,4.596c-0.886,0.55-1.774,1.148-2.653,1.788   c-8.16,5.935-13.863,14.638-16.058,24.51l-1.693,7.626H54.61c4.086,6.405,11.237,10.665,19.398,10.665   c12.711,0,23.015-10.304,23.015-23.015S86.72,51.189,74.009,51.189z M50.995,74.204c0,1.554,0.16,3.071,0.453,4.539H12.769   c2.019-7.101,6.363-13.381,12.375-17.838c3.403-2.526,7.154-4.356,11.155-5.445l4.253-1.158l-4.045-1.747   c-8.028-3.467-13.215-11.352-13.215-20.088c0-1.413,0.137-2.833,0.407-4.219c1.337-2.422,3.857-3.917,6.624-3.917h29.685   c2.769,0,5.291,1.498,6.628,3.92c0.269,1.383,0.406,2.8,0.406,4.215c0,8.736-5.188,16.62-13.215,20.088l-4.045,1.747l4.253,1.158   c1.58,0.431,3.119,0.98,4.616,1.64C53.961,61.312,50.995,67.404,50.995,74.204z M84.864,77.248h-7.812v7.812   c0,1.68-1.363,3.042-3.043,3.042c-1.682,0-3.044-1.362-3.044-3.042v-7.812h-7.812c-1.682,0-3.043-1.363-3.043-3.044   c0-1.682,1.362-3.044,3.043-3.044h7.812v-7.812c0-1.681,1.362-3.044,3.044-3.043c1.68-0.001,3.043,1.362,3.043,3.043v7.812h7.812   c1.68,0,3.043,1.362,3.043,3.044C87.907,75.885,86.544,77.248,84.864,77.248z"/></g><text x="0" y="115" fill="#000000" font-size="5px" font-weight="bold" font-family="'Helvetica Neue', Helvetica, Arial-Unicode, Arial, Sans-serif">Created by Diego Naive</text><text x="0" y="120" fill="#000000" font-size="5px" font-weight="bold" font-family="'Helvetica Neue', Helvetica, Arial-Unicode, Arial, Sans-serif">from the Noun Project</text></svg>